<svg t="1695432660529" class="icon" viewBox="0 0 1028 1024" version="1.1" xmlns="http://www.w3.org/2000/svg" p-id="1461" width="16" height="16"><path d="M354.5 756.8q17.1 0 32.4 6.3t26.55 17.55 18 26.55 6.75 32.4-6.75 32.4-18 26.55-26.55 18-32.4 6.75q-18 0-33.3-6.75t-26.55-18-18-26.55-6.75-32.4 6.75-32.4 18-26.55 26.55-17.55 33.3-6.3zM728.9 758.6q17.1 0 32.85 6.3t27 17.55 18 26.55 6.75 32.4-6.75 32.4-18 26.55-27 18-32.85 6.75-32.4-6.75-26.55-18-18-26.55-6.75-32.4 6.75-32.4 18-26.55 26.55-17.55 32.4-6.3zM880.1 247.4q25.2 0 39.15 6.75t19.8 16.65 5.4 21.15-3.15 19.35-11.7 33.3-19.35 55.35-20.7 59.85-16.65 46.8q-11.7 36-29.25 49.95t-43.65 13.95l-31.5 0-57.6 0-75.6 0-84.6 0-223.2 0 12.6 81 454.5 0q43.2 0 43.2 36.9 0 18-8.55 31.5t-33.75 12.6l-43.2 0-82.8 0-104.4 0-105.3 0-87.3 0-48.6 0q-18 0-30.15-8.1t-20.25-21.15-13.05-28.35-7.65-28.8q-0.9-5.4-4.95-26.1t-9.9-51.75-13.05-69.3-14.4-76.95q-17.1-90.9-38.7-202.5l-67.5 0q-13.5 0-22.5-6.75t-14.85-16.2-8.1-20.25-2.25-19.8q0-18 12.15-29.7t32.85-10.8l90.9 0q18 0 28.8 5.4t17.1 13.5 9 16.65 4.5 14.85q1.8 7.2 3.6 20.25t3.6 26.55q2.7 16.2 5.4 34.2l615.6 0zM846.8 327.5l-563.4-1.8 31.5 162.9 470.7 0.9z" fill="#000000" p-id="1462"></path></svg>
